<?xml version="1.0" encoding="utf-8"?>
<!-- Generator: Adobe Illustrator 24.0.2, SVG Export Plug-In . SVG Version: 6.00 Build 0)  -->
<svg version="1.1" xmlns="http://www.w3.org/2000/svg" xmlns:xlink="http://www.w3.org/1999/xlink" x="0px" y="0px"
	 viewBox="0 0 22 22" style="enable-background:new 0 0 22 22;" xml:space="preserve">
<style type="text/css">
	.st0{display:none;}
	.st1{fill:#5F5F79;}
</style>
<g id="Layer_1" class="st0">
	
		<image style="display:inline;overflow:visible;" width="669" height="669" xlink:href="C:\Users\yasuitori\Desktop\apple-logo.png"  transform="matrix(3.659432e-02 0 0 3.659432e-02 -1.4658 -1.2408)">
	</image>
</g>
<g id="Layer_2">
	<path class="st1" d="M14.9,0.2c0,0-4.1,0.3-4.3,5C10.6,5.3,14.8,5.3,14.9,0.2z"/>
	<path class="st1" d="M18.8,7.6c0,0-1.2-2.1-4.4-2.2c0,0-1.3,0.1-2.4,0.7c0,0-1.3,0.7-2.5,0c0,0-2.9-1.8-5.9,1c0,0-3,2.5-1,8.9
		c0,0,1.3,3.5,3.4,5.3c0,0,0.8,1.3,3.7,0c0,0,1.3-0.8,3.4,0.3c0,0,1.8,0.8,3-0.2c0,0,2.4-2.1,3.2-5.2c0,0-2.5-1.1-2.8-3.9
		C16.4,9.6,18.8,7.6,18.8,7.6z"/>
</g>
</svg>
