<?xml version="1.0" encoding="utf-8"?>
<!-- Generator: Adobe Illustrator 24.0.2, SVG Export Plug-In . SVG Version: 6.00 Build 0)  -->
<svg version="1.1" id="Слой_2" xmlns="http://www.w3.org/2000/svg" xmlns:xlink="http://www.w3.org/1999/xlink" x="0px" y="0px"
	 viewBox="0 0 33 33" style="enable-background:new 0 0 33 33;" xml:space="preserve">
<style type="text/css">
	.st0{fill:#646480;}
	.st1{fill:#FFFFFF;}
</style>
<ellipse class="st0" cx="16.5" cy="16.5" rx="16.5" ry="16.5"/>
<g>
	<g>
		<path class="st1" d="M23.7,12.6H9.3c-0.8,0-1.3-0.7-1.3-1.5s0.6-1.5,1.3-1.5h14.4c0.8,0,1.3,0.7,1.3,1.5
			C25.1,11.9,24.5,12.6,23.7,12.6z"/>
	</g>
	<g>
		<path class="st1" d="M23.7,18.4H9.3c-0.8,0-1.3-0.7-1.3-1.5s0.6-1.5,1.3-1.5h14.4c0.8,0,1.3,0.7,1.3,1.5S24.5,18.4,23.7,18.4z"/>
	</g>
	<g>
		<path class="st1" d="M23.7,24.3H9.3c-0.8,0-1.3-0.7-1.3-1.5s0.6-1.5,1.3-1.5h14.4c0.8,0,1.3,0.7,1.3,1.5S24.5,24.3,23.7,24.3z"/>
	</g>
</g>
</svg>
